<?xml version="1.0" standalone="no"?><!DOCTYPE svg PUBLIC "-//W3C//DTD SVG 1.1//EN" "http://www.w3.org/Graphics/SVG/1.1/DTD/svg11.dtd"><svg t="1757335446363" class="icon" viewBox="0 0 1024 1024" version="1.1" xmlns="http://www.w3.org/2000/svg" p-id="3420" xmlns:xlink="http://www.w3.org/1999/xlink" width="200" height="200"><path d="M512 981.333333a469.333333 469.333333 0 1 1 469.333333-469.333333 469.333333 469.333333 0 0 1-469.333333 469.333333z m0-853.333333a384 384 0 1 0 384 384 384 384 0 0 0-384-384z" p-id="3421" fill="#d81e06"></path><path d="M640 682.666667H384a42.666667 42.666667 0 0 1-42.666667-42.666667V384a42.666667 42.666667 0 0 1 42.666667-42.666667h256a42.666667 42.666667 0 0 1 42.666667 42.666667v256a42.666667 42.666667 0 0 1-42.666667 42.666667z m-213.333333-85.333334h170.666666v-170.666666h-170.666666z" p-id="3422" fill="#d81e06"></path></svg>